<svg width="96" height="96" viewBox="0 0 96 96" fill="none" xmlns="http://www.w3.org/2000/svg">
  <rect width="96" height="96" fill="#0D1117"/>
  <g transform="translate(21.95 21.95) scale(2.198)">
    <circle cx="11.84375" cy="11.84375" r="11.84375" fill="white"/>
    <path fill="#D7193F" fill-rule="evenodd" clip-rule="evenodd" d="M518.32031 713.60547c-.95312 1.42578-2.16797 2.18359-3.52344 2.18359-.59375 0-1.21875-.14453-1.85937-.42969-.67969-.30078-1.27734-.85156-1.68359-1.55078-.40235-.69922-.5625-1.45312-.44922-2.13281.14062-.59375.45312-1.40234.8164-2.33984.94141-2.4375 2.23438-5.77735 1.11719-7.41016-.46875-.6875-1.31641-1.02344-2.58203-1.02734-1.26953.004-2.11328.33984-2.58594 1.02734-1.11328 1.63281.17578 4.97266 1.1211 7.41406.35937.9336.67578 1.74219.8125 2.34375.11718.67188-.043 1.42578-.44922 2.125-.40235.69922-1 1.25-1.67969 1.55078-.64063.28516-1.26953.42969-1.85938.42969-1.35546 0-2.57421-.75781-3.51953-2.17969l-.10937-.19531c.45312.22656 1.3164.60156 2.0625.60156.37109 0 .72265-.11328 1.07031-.34375 1.91406-1.27343 1.26172-2.80468-.0469-5.17187-.55469-1.00391-1.125-2.03906-1.37891-3.10938-.27344-1.14843-.52344-2.82421.47656-4.08984.46485-.59766 1.17969-1.05469 2.11719-1.36328.97266-.32422 2.22656-.49609 3.72656-.51953h.48438c1.5.0234 2.7539.19531 3.72656.51953.9375.30859 1.64844.76562 2.11719 1.36328 1 1.26563.75 2.94141.47656 4.08984-.25391 1.07032-.82422 2.10547-1.37891 3.10938-1.30859 2.36719-1.96484 3.89844-.0469 5.17187.34765.23047.69531.34375 1.07031.34375.74609 0 1.60547-.375 2.0625-.60156zm-8.16406-17.29297c-6.54297 0-11.84375 5.30078-11.84375 11.84375 0 6.53906 5.30078 11.84375 11.84375 11.84375S522 714.69531 522 708.15625c0-6.54297-5.30078-11.84375-11.84375-11.84375" transform="translate(-498.3125 -696.3125)"/>
  </g>
</svg>
